<svg xmlns="http://www.w3.org/2000/svg" viewBox="0 0 74 92">
  <rect width="74" height="92" rx="18" fill="#f7fbff"/>
  <path d="M6.5 22.5C6.5 9.5 14.3 4.2 25.7 7.9c5.7 1.8 8.5 2.1 11.5 2.1s5.8-.3 11.5-2.1C60.1 4.2 67.9 9.5 67.9 22.5" fill="none" stroke="#0758b8" stroke-width="6" stroke-linecap="round" stroke-linejoin="round"/>
  <path d="M10.2 35.4c3.7 12.8 5.3 24.8 5.5 37.7.1 8.1 3.7 12.9 8.1 12.9 5.1 0 5-8.3 6.5-18.8.9-6.1 2.4-10.4 5.5-10.4s4.6 4.3 5.5 10.4c1.5 10.5 1.4 18.8 6.5 18.8 4.4 0 8-4.8 8.1-12.9.2-12.9 1.8-24.9 5.5-37.7" fill="none" stroke="#606772" stroke-width="6" stroke-linecap="round" stroke-linejoin="round"/>
</svg>
